<?xml version="1.0" encoding="UTF-8"?>
<svg xmlns="http://www.w3.org/2000/svg" version="1.1" viewBox="0 0 106.93 69.38">
  <defs>
    <style>
      .cls-1 {
        fill: #258341;
      }
    </style>
  </defs>
  <!-- Generator: Adobe Illustrator 28.7.10, SVG Export Plug-In . SVG Version: 1.2.0 Build 236)  -->
  <g>
    <g id="beaver-castor">
      <g>
        <path class="cls-1" d="M78.29,69.49c2.06-1.74,3.92-3.69,5.57-5.82,1.59.22,3.17.46,4.75.72,1.31.22,3.44-2,4.91-2.8,1.44-.79,5.25.52,6.02.35.78-.17,1.09-.67,1.91-1.87.27-.41.95-.33,1.46-.6.49-.27,1.59-2.56,1.59-3.8,0-.85-3.93-.92-5.51-3.11-.6-.82-.88-1.5-1.45-1.61-2.28-.44-4.58-.85-6.88-1.22.75-2.98,1.16-6.1,1.16-9.32,0-21.03-17.04-38.07-38.07-38.07S15.66,19.37,15.66,40.4c0,3.22.4,6.34,1.15,9.32-2.31.37-4.6.78-6.88,1.22-.58.11-.86.79-1.45,1.61-1.58,2.19-5.51,2.26-5.51,3.11,0,1.24,1.09,3.54,1.59,3.8.51.27,1.19.19,1.46.6.82,1.21,1.13,1.7,1.91,1.87.77.17,4.58-1.14,6.02-.35,1.47.8,3.59,3.02,4.91,2.8,1.58-.26,3.16-.5,4.74-.72,1.6,2.07,3.4,3.96,5.38,5.66l7.45.17c-2.94-1.75-5.59-3.94-7.87-6.47,3.59-.42,7.2-.76,10.84-1-.77-1.6-1.27-3.35-1.46-5.2-5.92.42-11.78,1.08-17.56,1.96-1.73.26-2.45-1.76-1.02-1.98,1.47-.23,2.94-.44,4.41-.64.94-.12.27-1.63-.74-1.5-3.99.51-10.61,1.68-13.58,2.3-.76.16-1.72-.77-.93-1.15.32-.15.83-.3,1.29-.73.97-.91.89-1.07,1.39-1.16,8.95-1.71,18.09-2.89,27.39-3.51.36-1.15.86-2.25,1.46-3.27-6.42.38-12.78,1.02-19.05,1.92-.73-2.77-1.13-5.68-1.13-8.68,0-18.69,15.15-33.84,33.84-33.84s33.84,15.15,33.84,33.84c0,3-.39,5.91-1.13,8.68-1.05-.15-2.11-.3-3.17-.43-.29,1.04-.64,2.07-1.03,3.06,4.71.6,9.38,1.33,14,2.22.5.09.42.25,1.39,1.16.46.43.98.57,1.29.73.79.38-.17,1.31-.93,1.15-2.96-.62-9.58-1.79-13.58-2.3-1.01-.13-1.69,1.38-.74,1.5,1.48.2,2.95.41,4.41.64,1.43.22.71,2.24-1.02,1.98-2.66-.41-5.34-.76-8.03-1.07-1.21,1.77-2.6,3.4-4.15,4.88,1.34.13,2.67.28,4,.43-2.28,2.53-4.93,4.71-7.86,6.46h7.26Z"/>
        <path class="cls-1" d="M59.71,16.19c-7.48,0-14.38,5.64-18.64,5.64-2.59,0-4.68.1-5.68.6-4.02,1.98-11.67,9.72-11.67,11.87s5.41,7.35,7.45,8.18c.4.16,2.44-1.17,5.51-.78,2.98.38,4.65,1.83,5.5,2.62,2.28-2.42,5.31-4.13,8.73-4.74-1.07-4.68.5-8,2.16-9.75,0-4.02,2.81-7.39,6.58-8.25.62-.14.91.66.4.96-1.85,1.1-3.25,2.88-3.84,5.01.8-.36,1.51-.56,2.24-.69.6-.11.89.69.34.99-3.48,1.79-6.05,6.34-4.67,11.49,4.3,0,7.68,1.28,12.7,1.69,2.76.23,4.62-.48,5.82-1.37.48-.34,1.04.2.78.68-.96,1.73-3.55,3.62-6.75,3.62-5.67,0-7.61-1.45-12.9-1.45-7.01,0-12.71,5.68-12.71,12.69s5.68,12.7,12.69,12.7c15.19,0,27.5-12.31,27.5-27.49,0-11.43-7.37-24.22-21.52-24.22ZM35.56,30.18c-.54.19-3.05.66-3.67.7-1.22.05-.67-1.84.01-2.82.8-.99,2.49-.64,2.49-.64,0,0,2.46.39,2.55,1.44.07.74-.83,1.13-1.38,1.32Z"/>
      </g>
    </g>
  </g>
</svg>