<svg xmlns="http://www.w3.org/2000/svg" viewBox="0 0 288 216"><defs><style>.a{fill:#fff;}</style></defs><path class="a" d="M272.38,142.49c-1.69-2.34-2.49-4.27-4.13-4.58q-9.71-1.89-19.53-3.47a108,108,0,1,0-209.45,0q-9.81,1.59-19.52,3.47c-1.64.31-2.44,2.24-4.13,4.58C11.15,148.69,0,148.89,0,151.3c0,3.52,3.1,10,4.5,10.79s3.38.55,4.15,1.7c2.32,3.42,3.21,4.83,5.41,5.31s13-3.22,17.08-1,10.19,8.56,13.92,7.94q6.7-1.11,13.46-2.05a108,108,0,0,0,171,0c4.5.64,9,1.3,13.46,2,3.73.62,9.75-5.67,13.92-7.94s14.88,1.47,17.08,1,3.09-1.89,5.41-5.31c.77-1.15,2.7-.92,4.15-1.7s4.5-7.27,4.5-10.79C288,148.89,276.85,148.69,272.38,142.49ZM269.59,155c-8.41-1.77-27.18-5.07-38.51-6.53-2.87-.38-4.79,3.9-2.11,4.25q6.27.85,12.51,1.83c4.05.63,2,6.35-2.89,5.62q-11.33-1.72-22.78-3A88.31,88.31,0,0,1,204.05,171c3.79.37,7.56.79,11.33,1.23a96,96,0,0,1-142.77,0q15.27-1.8,30.76-2.83a44.88,44.88,0,0,1-4.14-14.75q-25.2,1.8-49.82,5.57c-4.9.73-6.94-5-2.89-5.62s8.33-1.26,12.51-1.83c2.68-.35.76-4.63-2.11-4.25-11.33,1.46-30.1,4.76-38.51,6.53-2.16.45-4.88-2.18-2.63-3.26a12.39,12.39,0,0,0,3.66-2.06c2.75-2.59,2.54-3,3.95-3.3a640.25,640.25,0,0,1,77.69-9.95,45.31,45.31,0,0,1,4.15-9.28q-27.33,1.62-54,5.46a96,96,0,1,1,185.62,0c-3-.43-6-.85-9-1.23a86.05,86.05,0,0,1-2.92,8.69q20.06,2.53,39.72,6.29c1.41.26,1.2.71,3.95,3.3a12.39,12.39,0,0,0,3.66,2.06C274.47,152.82,271.75,155.45,269.59,155Z"/><path class="a" d="M161,39.32c-21.21,0-40.8,16-52.88,16-7.34,0-13.27.29-16.1,1.69C80.58,62.63,58.86,84.58,58.86,90.7S74.21,111.56,80,113.9c1.13.46,6.92-3.32,15.63-2.21a26.7,26.7,0,0,1,15.6,7.44A44.9,44.9,0,0,1,136,105.69C133,92.41,137.42,83,142.12,78a24,24,0,0,1,18.66-23.41,1.5,1.5,0,0,1,1.13,2.74A24.07,24.07,0,0,0,151,71.56a26.73,26.73,0,0,1,6.34-2,1.5,1.5,0,0,1,1,2.8c-9.88,5.08-17.15,18-13.26,32.59,12.21,0,21.8,3.62,36,4.8,7.82.65,13.11-1.37,16.5-3.89a1.5,1.5,0,0,1,2.21,1.92c-2.73,4.91-10.08,10.26-19.14,10.26-16.09,0-21.6-4.1-36.59-4.1a36,36,0,1,0-.06,72,78,78,0,0,0,78-78c0-32.43-20.91-68.71-61-68.71ZM92.45,79A79,79,0,0,1,82,81c-3.45.15-1.91-5.23,0-8,2.26-2.81,7.07-1.81,7.07-1.81s7,1.12,7.22,4.08C96.56,77.36,94,78.45,92.45,79Z"/></svg>